<mxfile host="app.diagrams.net" agent="Mozilla/5.0 (Windows NT 10.0; Win64; x64) AppleWebKit/537.36 (KHTML, like Gecko) Chrome/134.0.0.0 Safari/537.36" version="26.1.1">
  <diagram id="C5RBs43oDa-KdzZeNtuy" name="Page-1">
    <mxGraphModel dx="989" dy="914" grid="1" gridSize="10" guides="1" tooltips="1" connect="1" arrows="1" fold="1" page="0" pageScale="1" pageWidth="827" pageHeight="1169" math="0" shadow="0">
      <root>
        <mxCell id="WIyWlLk6GJQsqaUBKTNV-0" />
        <mxCell id="WIyWlLk6GJQsqaUBKTNV-1" parent="WIyWlLk6GJQsqaUBKTNV-0" />
        <mxCell id="cMEEBjWe3Lwdn8UD-wAH-42" style="edgeStyle=orthogonalEdgeStyle;rounded=0;orthogonalLoop=1;jettySize=auto;html=1;exitX=0.5;exitY=1;exitDx=0;exitDy=0;entryX=0.5;entryY=0;entryDx=0;entryDy=0;" edge="1" parent="WIyWlLk6GJQsqaUBKTNV-1" source="cMEEBjWe3Lwdn8UD-wAH-0" target="cMEEBjWe3Lwdn8UD-wAH-3">
          <mxGeometry relative="1" as="geometry" />
        </mxCell>
        <mxCell id="cMEEBjWe3Lwdn8UD-wAH-0" value="&lt;font style=&quot;font-size: 10px;&quot;&gt;Разбиение изображения на блоки 8×8 пикселей&amp;nbsp;&lt;/font&gt;" style="rounded=1;whiteSpace=wrap;html=1;fontSize=12;glass=0;strokeWidth=1;shadow=0;align=center;" vertex="1" parent="WIyWlLk6GJQsqaUBKTNV-1">
          <mxGeometry x="480" y="80" width="210" height="40" as="geometry" />
        </mxCell>
        <mxCell id="cMEEBjWe3Lwdn8UD-wAH-23" style="edgeStyle=orthogonalEdgeStyle;rounded=0;orthogonalLoop=1;jettySize=auto;html=1;exitX=0.5;exitY=1;exitDx=0;exitDy=0;entryX=0.5;entryY=0;entryDx=0;entryDy=0;" edge="1" parent="WIyWlLk6GJQsqaUBKTNV-1" source="cMEEBjWe3Lwdn8UD-wAH-2" target="cMEEBjWe3Lwdn8UD-wAH-19">
          <mxGeometry relative="1" as="geometry" />
        </mxCell>
        <mxCell id="cMEEBjWe3Lwdn8UD-wAH-2" value="&lt;div style=&quot;&quot;&gt;&lt;span style=&quot;background-color: transparent;&quot;&gt;&lt;font style=&quot;font-size: 10px;&quot;&gt;Цикл по каждому блоку Bᵢ в изображении&lt;/font&gt;&lt;/span&gt;&lt;/div&gt;" style="rounded=1;whiteSpace=wrap;html=1;fontSize=12;glass=0;strokeWidth=1;shadow=0;align=center;" vertex="1" parent="WIyWlLk6GJQsqaUBKTNV-1">
          <mxGeometry x="480" y="240" width="210" height="40" as="geometry" />
        </mxCell>
        <mxCell id="cMEEBjWe3Lwdn8UD-wAH-24" style="edgeStyle=orthogonalEdgeStyle;rounded=0;orthogonalLoop=1;jettySize=auto;html=1;exitX=0.5;exitY=1;exitDx=0;exitDy=0;" edge="1" parent="WIyWlLk6GJQsqaUBKTNV-1" source="cMEEBjWe3Lwdn8UD-wAH-3" target="cMEEBjWe3Lwdn8UD-wAH-2">
          <mxGeometry relative="1" as="geometry" />
        </mxCell>
        <mxCell id="cMEEBjWe3Lwdn8UD-wAH-3" value="&lt;div&gt;&lt;font style=&quot;font-size: 10px;&quot;&gt;Присвоение весов каждому блоку Bᵢ на основе:&amp;nbsp;&lt;span style=&quot;background-color: transparent; color: light-dark(rgb(0, 0, 0), rgb(255, 255, 255));&quot;&gt;Градиента области, содержащей блок&amp;nbsp;&lt;/span&gt;&lt;/font&gt;&lt;/div&gt;" style="rounded=1;whiteSpace=wrap;html=1;fontSize=12;glass=0;strokeWidth=1;shadow=0;align=center;" vertex="1" parent="WIyWlLk6GJQsqaUBKTNV-1">
          <mxGeometry x="480" y="160" width="210" height="40" as="geometry" />
        </mxCell>
        <mxCell id="cMEEBjWe3Lwdn8UD-wAH-22" style="edgeStyle=orthogonalEdgeStyle;rounded=0;orthogonalLoop=1;jettySize=auto;html=1;exitX=0.5;exitY=1;exitDx=0;exitDy=0;entryX=0.5;entryY=0;entryDx=0;entryDy=0;" edge="1" parent="WIyWlLk6GJQsqaUBKTNV-1" source="cMEEBjWe3Lwdn8UD-wAH-6" target="cMEEBjWe3Lwdn8UD-wAH-7">
          <mxGeometry relative="1" as="geometry" />
        </mxCell>
        <mxCell id="cMEEBjWe3Lwdn8UD-wAH-6" value="&lt;div style=&quot;&quot;&gt;&lt;div&gt;&lt;span style=&quot;background-color: transparent;&quot;&gt;&lt;font style=&quot;font-size: 10px;&quot;&gt;Применение DCT к блоку Bᵢ&amp;nbsp;&lt;/font&gt;&lt;/span&gt;&lt;/div&gt;&lt;div&gt;&lt;font style=&quot;font-size: 10px;&quot;&gt;&lt;span style=&quot;background-color: transparent;&quot;&gt;Получение матрицы коэффициентов DCT&lt;/span&gt;&lt;span style=&quot;background-color: transparent; color: light-dark(rgb(0, 0, 0), rgb(255, 255, 255));&quot;&gt;&amp;nbsp; &amp;nbsp;&lt;/span&gt;&lt;/font&gt;&lt;/div&gt;&lt;/div&gt;" style="rounded=1;whiteSpace=wrap;html=1;fontSize=12;glass=0;strokeWidth=1;shadow=0;align=center;" vertex="1" parent="WIyWlLk6GJQsqaUBKTNV-1">
          <mxGeometry x="480" y="465" width="210" height="40" as="geometry" />
        </mxCell>
        <mxCell id="cMEEBjWe3Lwdn8UD-wAH-48" style="edgeStyle=orthogonalEdgeStyle;rounded=0;orthogonalLoop=1;jettySize=auto;html=1;exitX=0.5;exitY=1;exitDx=0;exitDy=0;entryX=0.5;entryY=0;entryDx=0;entryDy=0;" edge="1" parent="WIyWlLk6GJQsqaUBKTNV-1" source="cMEEBjWe3Lwdn8UD-wAH-7" target="cMEEBjWe3Lwdn8UD-wAH-9">
          <mxGeometry relative="1" as="geometry" />
        </mxCell>
        <mxCell id="cMEEBjWe3Lwdn8UD-wAH-7" value="&lt;div style=&quot;&quot;&gt;&lt;font style=&quot;font-size: 10px;&quot;&gt;Присвоение весов каждому коэффициенту DCT в блоке Bᵢ на основе:&amp;nbsp;&lt;/font&gt;&lt;/div&gt;&lt;div style=&quot;&quot;&gt;&lt;font style=&quot;font-size: 10px;&quot;&gt;- Позиции в матрице (DC, AC)&amp;nbsp;&lt;/font&gt;&lt;/div&gt;&lt;div style=&quot;&quot;&gt;&lt;font style=&quot;font-size: 10px;&quot;&gt;- Веса блока&lt;/font&gt;&lt;/div&gt;" style="rounded=1;whiteSpace=wrap;html=1;fontSize=12;glass=0;strokeWidth=1;shadow=0;align=center;" vertex="1" parent="WIyWlLk6GJQsqaUBKTNV-1">
          <mxGeometry x="480" y="545" width="210" height="70" as="geometry" />
        </mxCell>
        <mxCell id="cMEEBjWe3Lwdn8UD-wAH-25" style="edgeStyle=orthogonalEdgeStyle;rounded=0;orthogonalLoop=1;jettySize=auto;html=1;exitX=0.5;exitY=1;exitDx=0;exitDy=0;entryX=0.5;entryY=0;entryDx=0;entryDy=0;" edge="1" parent="WIyWlLk6GJQsqaUBKTNV-1" source="cMEEBjWe3Lwdn8UD-wAH-9" target="cMEEBjWe3Lwdn8UD-wAH-10">
          <mxGeometry relative="1" as="geometry" />
        </mxCell>
        <mxCell id="cMEEBjWe3Lwdn8UD-wAH-9" value="&lt;div style=&quot;&quot;&gt;&lt;font style=&quot;font-size: 10px;&quot;&gt;Цикл по каждому коэффициенту DCT в блоке Bᵢ&amp;nbsp;&lt;/font&gt;&lt;/div&gt;" style="rounded=1;whiteSpace=wrap;html=1;fontSize=12;glass=0;strokeWidth=1;shadow=0;align=center;" vertex="1" parent="WIyWlLk6GJQsqaUBKTNV-1">
          <mxGeometry x="480" y="645" width="210" height="40" as="geometry" />
        </mxCell>
        <mxCell id="cMEEBjWe3Lwdn8UD-wAH-13" style="edgeStyle=orthogonalEdgeStyle;rounded=0;orthogonalLoop=1;jettySize=auto;html=1;exitX=1;exitY=0.5;exitDx=0;exitDy=0;entryX=0;entryY=0.5;entryDx=0;entryDy=0;" edge="1" parent="WIyWlLk6GJQsqaUBKTNV-1" source="cMEEBjWe3Lwdn8UD-wAH-10">
          <mxGeometry relative="1" as="geometry">
            <mxPoint x="759.9999999999998" y="760" as="targetPoint" />
          </mxGeometry>
        </mxCell>
        <mxCell id="cMEEBjWe3Lwdn8UD-wAH-26" style="edgeStyle=orthogonalEdgeStyle;rounded=0;orthogonalLoop=1;jettySize=auto;html=1;exitX=0.5;exitY=1;exitDx=0;exitDy=0;entryX=0.5;entryY=0;entryDx=0;entryDy=0;" edge="1" parent="WIyWlLk6GJQsqaUBKTNV-1" source="cMEEBjWe3Lwdn8UD-wAH-10" target="cMEEBjWe3Lwdn8UD-wAH-15">
          <mxGeometry relative="1" as="geometry" />
        </mxCell>
        <mxCell id="cMEEBjWe3Lwdn8UD-wAH-10" value="&lt;font style=&quot;font-size: 10px;&quot;&gt;Коэффициент DCT ≠ 0?&amp;nbsp; &amp;nbsp; &amp;nbsp;&lt;/font&gt;" style="rhombus;whiteSpace=wrap;html=1;shadow=0;fontFamily=Helvetica;fontSize=12;align=center;strokeWidth=1;spacing=6;spacingTop=-4;" vertex="1" parent="WIyWlLk6GJQsqaUBKTNV-1">
          <mxGeometry x="480" y="715" width="210" height="90" as="geometry" />
        </mxCell>
        <mxCell id="cMEEBjWe3Lwdn8UD-wAH-20" style="edgeStyle=orthogonalEdgeStyle;rounded=0;orthogonalLoop=1;jettySize=auto;html=1;exitX=0.5;exitY=0;exitDx=0;exitDy=0;entryX=1;entryY=0.5;entryDx=0;entryDy=0;" edge="1" parent="WIyWlLk6GJQsqaUBKTNV-1" source="cMEEBjWe3Lwdn8UD-wAH-12" target="cMEEBjWe3Lwdn8UD-wAH-9">
          <mxGeometry relative="1" as="geometry" />
        </mxCell>
        <mxCell id="cMEEBjWe3Lwdn8UD-wAH-12" value="&lt;font style=&quot;font-size: 10px;&quot;&gt;Пропуск коэффициента&lt;/font&gt;" style="rounded=1;whiteSpace=wrap;html=1;fontSize=12;glass=0;strokeWidth=1;shadow=0;" vertex="1" parent="WIyWlLk6GJQsqaUBKTNV-1">
          <mxGeometry x="760" y="740" width="200" height="40" as="geometry" />
        </mxCell>
        <mxCell id="cMEEBjWe3Lwdn8UD-wAH-27" style="edgeStyle=orthogonalEdgeStyle;rounded=0;orthogonalLoop=1;jettySize=auto;html=1;exitX=0.5;exitY=1;exitDx=0;exitDy=0;entryX=0.5;entryY=0;entryDx=0;entryDy=0;" edge="1" parent="WIyWlLk6GJQsqaUBKTNV-1" source="cMEEBjWe3Lwdn8UD-wAH-15" target="cMEEBjWe3Lwdn8UD-wAH-16">
          <mxGeometry relative="1" as="geometry" />
        </mxCell>
        <mxCell id="cMEEBjWe3Lwdn8UD-wAH-15" value="&lt;div style=&quot;&quot;&gt;&lt;font style=&quot;font-size: 10px;&quot;&gt;Получение веса коэффициента DCT&lt;/font&gt;&lt;/div&gt;&lt;div style=&quot;&quot;&gt;&lt;font style=&quot;font-size: 10px;&quot;&gt;Определение допустимой степени изменения&lt;/font&gt;&lt;/div&gt;" style="rounded=1;whiteSpace=wrap;html=1;fontSize=12;glass=0;strokeWidth=1;shadow=0;align=center;" vertex="1" parent="WIyWlLk6GJQsqaUBKTNV-1">
          <mxGeometry x="480" y="835" width="200" height="40" as="geometry" />
        </mxCell>
        <mxCell id="cMEEBjWe3Lwdn8UD-wAH-28" style="edgeStyle=orthogonalEdgeStyle;rounded=0;orthogonalLoop=1;jettySize=auto;html=1;exitX=0.5;exitY=1;exitDx=0;exitDy=0;entryX=0.5;entryY=0;entryDx=0;entryDy=0;" edge="1" parent="WIyWlLk6GJQsqaUBKTNV-1" source="cMEEBjWe3Lwdn8UD-wAH-16" target="cMEEBjWe3Lwdn8UD-wAH-18">
          <mxGeometry relative="1" as="geometry" />
        </mxCell>
        <mxCell id="cMEEBjWe3Lwdn8UD-wAH-16" value="&lt;div style=&quot;&quot;&gt;&lt;div&gt;&lt;font style=&quot;font-size: 10px;&quot;&gt;Внедрение данных в коэффициент DCT&amp;nbsp;&lt;/font&gt;&lt;/div&gt;&lt;div&gt;&lt;font style=&quot;font-size: 10px;&quot;&gt;- Вычисление синдрома S = B · H_wᵀ&lt;/font&gt;&lt;/div&gt;&lt;div&gt;&lt;font style=&quot;font-size: 10px;&quot;&gt;- Решение системы уравнений&lt;/font&gt;&lt;/div&gt;&lt;div&gt;&lt;font style=&quot;font-size: 10px;&quot;&gt;- Поиск вектора ошибок E&amp;nbsp;&lt;/font&gt;&lt;/div&gt;&lt;div&gt;&lt;font style=&quot;font-size: 10px;&quot;&gt;- Обновление коэффициента: B&#39; = B ⊕ E&lt;/font&gt;&lt;/div&gt;&lt;/div&gt;" style="rounded=1;whiteSpace=wrap;html=1;fontSize=12;glass=0;strokeWidth=1;shadow=0;align=center;" vertex="1" parent="WIyWlLk6GJQsqaUBKTNV-1">
          <mxGeometry x="480" y="915" width="200" height="110" as="geometry" />
        </mxCell>
        <mxCell id="cMEEBjWe3Lwdn8UD-wAH-31" style="edgeStyle=orthogonalEdgeStyle;rounded=0;orthogonalLoop=1;jettySize=auto;html=1;entryX=0;entryY=0.5;entryDx=0;entryDy=0;" edge="1" parent="WIyWlLk6GJQsqaUBKTNV-1" source="cMEEBjWe3Lwdn8UD-wAH-18" target="cMEEBjWe3Lwdn8UD-wAH-15">
          <mxGeometry relative="1" as="geometry">
            <Array as="points">
              <mxPoint x="400" y="1120" />
              <mxPoint x="400" y="855" />
            </Array>
          </mxGeometry>
        </mxCell>
        <mxCell id="cMEEBjWe3Lwdn8UD-wAH-34" style="edgeStyle=orthogonalEdgeStyle;rounded=0;orthogonalLoop=1;jettySize=auto;html=1;exitX=1;exitY=0.5;exitDx=0;exitDy=0;entryX=0;entryY=0.5;entryDx=0;entryDy=0;" edge="1" parent="WIyWlLk6GJQsqaUBKTNV-1" source="cMEEBjWe3Lwdn8UD-wAH-18" target="cMEEBjWe3Lwdn8UD-wAH-32">
          <mxGeometry relative="1" as="geometry" />
        </mxCell>
        <mxCell id="cMEEBjWe3Lwdn8UD-wAH-18" value="&lt;font style=&quot;font-size: 10px;&quot;&gt;Остались необработанные коэффициенты DCT?&lt;/font&gt;" style="rhombus;whiteSpace=wrap;html=1;shadow=0;fontFamily=Helvetica;fontSize=12;align=center;strokeWidth=1;spacing=6;spacingTop=-4;" vertex="1" parent="WIyWlLk6GJQsqaUBKTNV-1">
          <mxGeometry x="480" y="1075" width="200" height="90" as="geometry" />
        </mxCell>
        <mxCell id="cMEEBjWe3Lwdn8UD-wAH-21" style="edgeStyle=orthogonalEdgeStyle;rounded=0;orthogonalLoop=1;jettySize=auto;html=1;exitX=0.5;exitY=1;exitDx=0;exitDy=0;entryX=0.5;entryY=0;entryDx=0;entryDy=0;" edge="1" parent="WIyWlLk6GJQsqaUBKTNV-1" source="cMEEBjWe3Lwdn8UD-wAH-19" target="cMEEBjWe3Lwdn8UD-wAH-6">
          <mxGeometry relative="1" as="geometry" />
        </mxCell>
        <mxCell id="cMEEBjWe3Lwdn8UD-wAH-40" style="edgeStyle=orthogonalEdgeStyle;rounded=0;orthogonalLoop=1;jettySize=auto;html=1;exitX=0;exitY=0.5;exitDx=0;exitDy=0;entryX=0;entryY=0.5;entryDx=0;entryDy=0;" edge="1" parent="WIyWlLk6GJQsqaUBKTNV-1" source="cMEEBjWe3Lwdn8UD-wAH-19" target="cMEEBjWe3Lwdn8UD-wAH-37">
          <mxGeometry relative="1" as="geometry">
            <Array as="points">
              <mxPoint x="320" y="375" />
              <mxPoint x="320" y="1310" />
            </Array>
          </mxGeometry>
        </mxCell>
        <mxCell id="cMEEBjWe3Lwdn8UD-wAH-19" value="&lt;font style=&quot;font-size: 10px;&quot;&gt;Остались ли данные для внедрения?&amp;nbsp;&lt;/font&gt;" style="rhombus;whiteSpace=wrap;html=1;shadow=0;fontFamily=Helvetica;fontSize=12;align=center;strokeWidth=1;spacing=6;spacingTop=-4;" vertex="1" parent="WIyWlLk6GJQsqaUBKTNV-1">
          <mxGeometry x="480" y="330" width="210" height="90" as="geometry" />
        </mxCell>
        <mxCell id="cMEEBjWe3Lwdn8UD-wAH-41" style="edgeStyle=orthogonalEdgeStyle;rounded=0;orthogonalLoop=1;jettySize=auto;html=1;exitX=0.5;exitY=1;exitDx=0;exitDy=0;entryX=0.5;entryY=0;entryDx=0;entryDy=0;" edge="1" parent="WIyWlLk6GJQsqaUBKTNV-1" source="cMEEBjWe3Lwdn8UD-wAH-32" target="cMEEBjWe3Lwdn8UD-wAH-37">
          <mxGeometry relative="1" as="geometry" />
        </mxCell>
        <mxCell id="cMEEBjWe3Lwdn8UD-wAH-47" style="edgeStyle=orthogonalEdgeStyle;rounded=0;orthogonalLoop=1;jettySize=auto;html=1;exitX=1;exitY=0.5;exitDx=0;exitDy=0;entryX=1;entryY=0.5;entryDx=0;entryDy=0;" edge="1" parent="WIyWlLk6GJQsqaUBKTNV-1" source="cMEEBjWe3Lwdn8UD-wAH-32" target="cMEEBjWe3Lwdn8UD-wAH-2">
          <mxGeometry relative="1" as="geometry" />
        </mxCell>
        <mxCell id="cMEEBjWe3Lwdn8UD-wAH-32" value="&lt;font style=&quot;font-size: 10px;&quot;&gt;Остались необработанные блоки Bᵢ?&lt;/font&gt;" style="rhombus;whiteSpace=wrap;html=1;shadow=0;fontFamily=Helvetica;fontSize=12;align=center;strokeWidth=1;spacing=6;spacingTop=-4;" vertex="1" parent="WIyWlLk6GJQsqaUBKTNV-1">
          <mxGeometry x="760" y="1075" width="200" height="90" as="geometry" />
        </mxCell>
        <mxCell id="cMEEBjWe3Lwdn8UD-wAH-37" value="&lt;div style=&quot;&quot;&gt;&lt;font style=&quot;font-size: 10px;&quot;&gt;Конец&lt;/font&gt;&lt;/div&gt;" style="rounded=1;whiteSpace=wrap;html=1;fontSize=12;glass=0;strokeWidth=1;shadow=0;align=center;" vertex="1" parent="WIyWlLk6GJQsqaUBKTNV-1">
          <mxGeometry x="760" y="1290" width="200" height="40" as="geometry" />
        </mxCell>
        <mxCell id="cMEEBjWe3Lwdn8UD-wAH-46" style="edgeStyle=orthogonalEdgeStyle;rounded=0;orthogonalLoop=1;jettySize=auto;html=1;exitX=0.5;exitY=1;exitDx=0;exitDy=0;entryX=0.5;entryY=0;entryDx=0;entryDy=0;" edge="1" parent="WIyWlLk6GJQsqaUBKTNV-1" source="cMEEBjWe3Lwdn8UD-wAH-43" target="cMEEBjWe3Lwdn8UD-wAH-0">
          <mxGeometry relative="1" as="geometry" />
        </mxCell>
        <mxCell id="cMEEBjWe3Lwdn8UD-wAH-43" value="&lt;font style=&quot;font-size: 10px;&quot;&gt;Получение исходного изображения JPEG&lt;/font&gt;" style="rounded=1;whiteSpace=wrap;html=1;fontSize=12;glass=0;strokeWidth=1;shadow=0;align=center;" vertex="1" parent="WIyWlLk6GJQsqaUBKTNV-1">
          <mxGeometry x="480" width="210" height="40" as="geometry" />
        </mxCell>
        <mxCell id="cMEEBjWe3Lwdn8UD-wAH-45" style="edgeStyle=orthogonalEdgeStyle;rounded=0;orthogonalLoop=1;jettySize=auto;html=1;exitX=0.5;exitY=1;exitDx=0;exitDy=0;entryX=0.5;entryY=0;entryDx=0;entryDy=0;" edge="1" parent="WIyWlLk6GJQsqaUBKTNV-1" source="cMEEBjWe3Lwdn8UD-wAH-44" target="cMEEBjWe3Lwdn8UD-wAH-43">
          <mxGeometry relative="1" as="geometry" />
        </mxCell>
        <mxCell id="cMEEBjWe3Lwdn8UD-wAH-44" value="&lt;font style=&quot;font-size: 10px;&quot;&gt;Старт&lt;/font&gt;" style="rounded=1;whiteSpace=wrap;html=1;fontSize=12;glass=0;strokeWidth=1;shadow=0;align=center;" vertex="1" parent="WIyWlLk6GJQsqaUBKTNV-1">
          <mxGeometry x="480" y="-80" width="210" height="40" as="geometry" />
        </mxCell>
      </root>
    </mxGraphModel>
  </diagram>
</mxfile>
